<svg id="bold" height="512" viewBox="0 0 32 32" width="512" xmlns="http://www.w3.org/2000/svg"><path d="m6 0h20c3.314 0 6 2.686 6 6v20c0 3.314-2.686 6-6 6h-20c-3.314 0-6-2.686-6-6v-20c0-3.314 2.686-6 6-6z" fill="#e3f8fa"/><g fill="#26c6da"><path d="m22.167 19.667h-10c-.276 0-.5-.224-.5-.5s.224-.5.5-.5h.999.001 9c.236 0 .44-.166.489-.397l1.333-6.333c.031-.147-.006-.301-.101-.418s-.238-.185-.388-.185h-11.261l-.253-1.204c-.177-.84-.928-1.452-1.786-1.455l-1.698-.008c-.001 0-.002 0-.002 0-.275 0-.499.222-.5.498s.222.5.498.502l1.698.007c.39.002.731.28.812.661l.337 1.6 1.206 5.73h-.384c-.827 0-1.5.673-1.5 1.5s.673 1.5 1.5 1.5h10c.276 0 .5-.224.5-.5s-.224-.498-.5-.498z"/><circle cx="15" cy="22.333" r="1"/><circle cx="20.333" cy="22.333" r="1"/></g></svg>